# xmcd CD database file
#
# Track frame offsets:
#	150
#	12860
#	23867
#	40025
#	57275
#	70677
#	78027
#	92497
#	106737
#	125190
#	138527
#	156687
#	178107
#	186380
#	193327
#	218695
#	226757
#	256597
#	269775
#	283555
#	301992
#	312112
#	326007
#	335595
#
# Disc length: 4592 seconds
#
# Revision: 1
# Processed by: cddbd v1.5.1PL0 Copyright (c) Steve Scherf et al.
# Submitted via: CDex 1.51
#
DISCID=5811ee18
DTITLE=Valery Afanassiev - Bach Das Wohltemperierte Klavier II CD2
DYEAR=2004
DGENRE=Classical
TTITLE0=Praeludium und Fuge in F-sharp major, BWV882 - Praeludium 13
TTITLE1=Praeludium und Fuge in F-sharp major, BWV882 - Fuge 13
TTITLE2=Praeludium und Fuge in F-sharp minor, BWV883 - Praeludium 14
TTITLE3=Praeludium und Fuge in F-sharp minor, BWV883 - Fuge 14
TTITLE4=Praeludium und Fuge in F-sharp major, BWV884 - Praeludium 15
TTITLE5=Praeludium und Fuge in F-sharp major, BWV884 - Fuge 15
TTITLE6=Praeludium und Fuge in G minor, BWV885 - Praeludium 16
TTITLE7=Praeludium und Fuge in G minor, BWV885 - Fuge 16
TTITLE8=Praeludium und Fuge in A-flat major, BWV886 - Praeludium 17
TTITLE9=Praeludium und Fuge in A-flat major, BWV886 - Fuge 17
TTITLE10=Praeludium und Fuge in G-sharp minor, BWV887 - Praeludium 18
TTITLE11=Praeludium und Fuge in G-sharp minor, BWV887 - Fuge 18
TTITLE12=Praeludium und Fuge in A major, BWV888 - Praeludium 19
TTITLE13=Praeludium und Fuge in A major, BWV888 - Fuge 19
TTITLE14=Praeludium und Fuge in A minor, BWV889 - Praeludium 20
TTITLE15=Praeludium und Fuge in A minor, BWV889 - Fuge 20
TTITLE16=Praeludium und Fuge in B-flat major, BWV890 - Praeludium 21
TTITLE17=Praeludium und Fuge in B-flat major, BWV890 - Fuge 21
TTITLE18=Praeludium und Fuge in B-flat minor, BWV891 - Praeludium 22
TTITLE19=Praeludium und Fuge in B-flat minor, BWV891 - Fuge 22
TTITLE20=Praeludium und Fuge in B major, BWV892 - Praeludium 23
TTITLE21=Praeludium und Fuge in B major, BWV892 - Fuge 23
TTITLE22=Praeludium und Fuge in B minor, BWV893 - Praeludium 24
TTITLE23=Praeludium und Fuge in B minor, BWV893 - Fuge 24
EXTD=YEAR: 2004
EXTT0=
EXTT1=
EXTT2=
EXTT3=
EXTT4=
EXTT5=
EXTT6=
EXTT7=
EXTT8=
EXTT9=
EXTT10=
EXTT11=
EXTT12=
EXTT13=
EXTT14=
EXTT15=
EXTT16=
EXTT17=
EXTT18=
EXTT19=
EXTT20=
EXTT21=
EXTT22=
EXTT23=
PLAYORDER=
